#!OML:ASF H:\Not Pregnant\Project 1\Capture day 1\Session 1\non-pregnant.ASF
:FULLY-SPECIFIED
:DEGREES
625
root -8.14395 17.0054 -28.2295 -166.69 2.72523 -176.799
lowerback -7.42744 1.52027 3.90041
upperback -8.60099 2.90882 -0.0938881
thorax -4.63705 1.67613 -2.21539
lowerneck 23.1944 -6.69047 -30.3079
upperneck -11.2817 -21.6375 44.9421
head 2.3737 -15.4652 24.1878
rclavicle -5.7896e-015 -2.78299e-015
rhumerus -37.4503 -7.99725 -82.8615
rradius 22.0065
rwrist 28.1239
rhand -7.11252 -0.51436
rfingers 7.12502
rthumb 18.7626 -29.6295
lclavicle -5.7896e-015 -2.78299e-015
lhumerus -44.2895 -5.76755 89.0454
lradius 33.5591
lwrist 37.5477
lhand -16.6138 -12.0066
lfingers 7.12502
lthumb 9.60795 17.7543
rfemur -20.2293 -13.6928 26.4646
rtibia 27.2077
rfoot -21.0113 21.6786
rtoes -2.76382
lfemur -20.5135 7.17662 -19.3007
ltibia 29.7318
lfoot -22.2197 -10.8522
ltoes -10.9114
626
root -8.14428 17.0051 -28.2277 -166.697 2.63806 -176.775
lowerback -7.38932 1.48369 3.9248
upperback -8.60902 2.86471 -0.040259
thorax -4.67173 1.65439 -2.17706
lowerneck 23.177 -6.6736 -30.3449
upperneck -11.2325 -21.5906 44.8866
head 2.36204 -15.4236 24.167
rclavicle 3.18055e-015 -9.14409e-015
rhumerus -37.5906 -7.6956 -82.9822
rradius 22.1401
rwrist 27.8694
rhand -7.10627 -0.47593
rfingers 7.12502
rthumb 18.7686 -29.5905
lclavicle 3.18055e-015 -9.14409e-015
lhumerus -44.1357 -5.78695 89.1497
lradius 33.7824
lwrist 37.6784
lhand -16.6759 -11.9561
lfingers 7.12502
lthumb 9.54802 17.8076
rfemur -20.2108 -13.5957 26.4882
rtibia 27.2002
rfoot -21.0036 21.4697
rtoes -2.87305
lfemur -20.5398 7.18357 -19.2627
ltibia 29.7484
lfoot -22.2264 -10.9746
ltoes -10.8317
627
root -8.14456 17.0049 -28.2258 -166.711 2.56649 -176.755
lowerback -7.33965 1.44937 3.93905
upperback -8.61791 2.82412 0.012322
thorax -4.71374 1.63457 -2.13449
lowerneck 23.1549 -6.65652 -30.3784
upperneck -11.1757 -21.5442 44.8296
head 2.3527 -15.3821 24.143
rclavicle -7.60351e-015 -7.95139e-015
rhumerus -37.7344 -7.39625 -83.107
rradius 22.2889
rwrist 27.6
rhand -7.11755 -0.452514
rfingers 7.12502
rthumb 18.7578 -29.5681
lclavicle -7.60351e-015 -7.95139e-015
lhumerus -43.986 -5.83436 89.2722
lradius 33.994
lwrist 37.8254
lhand -16.7321 -11.915
lfingers 7.12502
lthumb 9.49382 17.8511
rfemur -20.1873 -13.4809 26.5034
rtibia 27.1946
rfoot -20.9967 21.2598
rtoes -2.98483
lfemur -20.555 7.18784 -19.2292
ltibia 29.7596
lfoot -22.2274 -11.0831
ltoes -10.7227
628
root -8.14483 17.0047 -28.2239 -166.731 2.51035 -176.743
lowerback -7.28309 1.41829 3.94226
upperback -8.62496 2.7876 0.061099
thorax -4.75742 1.61688 -2.0897
lowerneck 23.1285 -6.64088 -30.4058
upperneck -11.1123 -21.499 44.7704
head 2.34497 -15.3409 24.114
rclavicle -2.14439e-014 -1.59028e-015
rhumerus -37.8751 -7.11009 -83.2327
rradius 22.4437
rwrist 27.3223
rhand -7.14079 -0.445238
rfingers 7.12502
rthumb 18.7354 -29.563
lclavicle -2.14439e-014 -1.59028e-015
lhumerus -43.8388 -5.92484 89.4186
lradius 34.189
lwrist 37.9967
lhand -16.792 -11.8975
lfingers 7.12502
lthumb 9.43604 17.8712
rfemur -20.16 -13.3556 26.5066
rtibia 27.1943
rfoot -20.9932 21.0543
rtoes -3.10728
lfemur -20.5567 7.19048 -19.2049
ltibia 29.7624
lfoot -22.2224 -11.176
ltoes -10.6012
629
root -8.1452 17.0044 -28.2219 -166.759 2.46859 -176.745
lowerback -7.21836 1.38925 3.92756
upperback -8.63227 2.75416 0.105249
thorax -4.80595 1.60125 -2.03989
lowerneck 23.1035 -6.62138 -30.4323
upperneck -11.0436 -21.4529 44.7131
head 2.33814 -15.3005 24.0878
rclavicle -7.50412e-015 -1.28216e-014
rhumerus -38.0147 -6.84192 -83.353
rradius 22.5995
rwrist 27.0424
rhand -7.18709 -0.449125
rfingers 7.12502
rthumb 18.6909 -29.5712
lclavicle -7.50412e-015 -1.28216e-014
lhumerus -43.7026 -6.05403 89.5891
lradius 34.3689
lwrist 38.1782
lhand -16.8409 -11.897
lfingers 7.12502
lthumb 9.3889 17.8739
rfemur -20.1306 -13.2369 26.4905
rtibia 27.2033
rfoot -20.9982 20.8646
rtoes -3.24534
lfemur -20.5416 7.18872 -19.1984
ltibia 29.7545
lfoot -22.2151 -11.2478
ltoes -10.5
